<svg width="180" height="48" viewBox="0 0 180 48" xmlns="http://www.w3.org/2000/svg">
  <!-- Icon rounded square -->
  <rect fill="#27500A" x="0" y="4" width="40" height="40" rx="10"/>
  <!-- Leaf -->
  <path fill="#97C459" d="M20 8 C14 13, 10 21, 10 30 C10 39, 14 44, 20 46 C26 44, 30 39, 30 30 C30 21, 26 13, 20 8Z"/>
  <!-- Midrib -->
  <line stroke="#27500A" x1="20" y1="10" x2="20" y2="44" stroke-width="1.2" stroke-linecap="round"/>
  <!-- Veins -->
  <line stroke="#27500A" x1="20" y1="20" x2="13" y2="24" stroke-width="0.8" stroke-linecap="round"/>
  <line stroke="#27500A" x1="20" y1="28" x2="12" y2="32" stroke-width="0.8" stroke-linecap="round"/>
  <line stroke="#27500A" x1="20" y1="36" x2="13" y2="40" stroke-width="0.8" stroke-linecap="round"/>
  <line stroke="#27500A" x1="20" y1="20" x2="27" y2="24" stroke-width="0.8" stroke-linecap="round"/>
  <line stroke="#27500A" x1="20" y1="28" x2="28" y2="32" stroke-width="0.8" stroke-linecap="round"/>
  <line stroke="#27500A" x1="20" y1="36" x2="27" y2="40" stroke-width="0.8" stroke-linecap="round"/>
  <!-- Lens -->
  <circle stroke="#C0DD97" fill="none" cx="20" cy="29" r="7" stroke-width="1.4"/>
  <!-- Handle -->
  <line stroke="#C0DD97" x1="25" y1="34" x2="29" y2="39" stroke-width="2" stroke-linecap="round"/>
  <!-- Disease dot -->
  <circle fill="#EF9F27" cx="21.5" cy="27.5" r="1.8"/>

  <!-- Wordmark: ShetVaidya stacked, centered -->
  <text x="90" y="20" font-family="Georgia, 'Times New Roman', serif" font-size="16" font-weight="700" fill="#1a2e10" text-anchor="middle" letter-spacing="-0.3">ShetVaidya</text>
  <!-- Devanagari subtitle -->
  <text x="90" y="35" font-family="serif" font-size="11" font-weight="400" fill="#3B6D11" text-anchor="middle" letter-spacing="0.3">पिकाचं दुखणं ओळखणारा</text>
  <!-- Tagline bottom -->
  <text x="90" y="46" font-family="Georgia, serif" font-size="8.5" font-weight="400" fill="#639922" text-anchor="middle" letter-spacing="1" font-style="italic">Plant Intelligence Suite</text>
</svg>
