<svg width="160" height="36" viewBox="0 0 160 36" xmlns="http://www.w3.org/2000/svg">
  <rect fill="#27500A" x="0" y="0" width="36" height="36" rx="9"/>
  <path fill="#97C459" d="M18 5 C12 10, 9 18, 9 25 C9 32, 12 36, 18 37 C24 36, 27 32, 27 25 C27 18, 24 10, 18 5Z"/>
  <line stroke="#27500A" x1="18" y1="7" x2="18" y2="35" stroke-width="1.1" stroke-linecap="round"/>
  <line stroke="#27500A" x1="18" y1="15" x2="12" y2="19" stroke-width="0.7" stroke-linecap="round"/>
  <line stroke="#27500A" x1="18" y1="22" x2="11" y2="26" stroke-width="0.7" stroke-linecap="round"/>
  <line stroke="#27500A" x1="18" y1="15" x2="24" y2="19" stroke-width="0.7" stroke-linecap="round"/>
  <line stroke="#27500A" x1="18" y1="22" x2="25" y2="26" stroke-width="0.7" stroke-linecap="round"/>
  <circle stroke="#C0DD97" fill="none" cx="18" cy="23" r="6" stroke-width="1.3"/>
  <line stroke="#C0DD97" x1="22" y1="27" x2="26" y2="32" stroke-width="1.8" stroke-linecap="round"/>
  <circle fill="#EF9F27" cx="19.5" cy="21.5" r="1.6"/>
  <text x="46" y="15" font-family="Georgia, 'Times New Roman', serif" font-size="14" font-weight="700" fill="#1a2e10" letter-spacing="-0.2">Shet</text>
  <text x="46" y="30" font-family="Georgia, 'Times New Roman', serif" font-size="14" font-weight="400" fill="#3B6D11" letter-spacing="-0.2">Vaidya</text>
  <line x1="42" y1="5" x2="42" y2="31" stroke="#C0DD97" stroke-width="0.8" stroke-linecap="round"/>
</svg>
