<svg xmlns="http://www.w3.org/2000/svg" viewBox="0 0 256 256" role="img" aria-label="AgroGuard app icon">
  <defs>
    <linearGradient id="bg" x1="0" y1="0" x2="1" y2="1">
      <stop offset="0%" stop-color="#2e7d32"/>
      <stop offset="100%" stop-color="#1b5e20"/>
    </linearGradient>
    <linearGradient id="glow" x1="0" y1="0" x2="1" y2="1">
      <stop offset="0%" stop-color="#55ffe6"/>
      <stop offset="100%" stop-color="#2fd8c3"/>
    </linearGradient>
  </defs>

  <rect x="8" y="8" width="240" height="240" rx="58" fill="url(#bg)"/>

  <g transform="translate(128 128) scale(1.8)" fill="url(#glow)">
    <path d="M2 -34H24Q34 -34 34 -24V-2H12Q2 -2 2 -12Z"/>
    <path transform="rotate(90)" d="M2 -34H24Q34 -34 34 -24V-2H12Q2 -2 2 -12Z"/>
    <path transform="rotate(180)" d="M2 -34H24Q34 -34 34 -24V-2H12Q2 -2 2 -12Z"/>
    <path transform="rotate(270)" d="M2 -34H24Q34 -34 34 -24V-2H12Q2 -2 2 -12Z"/>
  </g>

  <circle cx="128" cy="128" r="16" fill="#fbc02d"/>
</svg>
