<svg xmlns="http://www.w3.org/2000/svg" viewBox="0 0 512 512" role="img" aria-label="ShetVaidya maskable icon">
  <defs>
    <linearGradient id="bg" x1="0" y1="0" x2="1" y2="1">
      <stop offset="0%" stop-color="#2e7d32"/>
      <stop offset="100%" stop-color="#1b5e20"/>
    </linearGradient>
    <linearGradient id="glow" x1="0" y1="0" x2="1" y2="1">
      <stop offset="0%" stop-color="#55ffe6"/>
      <stop offset="100%" stop-color="#2fd8c3"/>
    </linearGradient>
  </defs>

  <rect x="0" y="0" width="512" height="512" fill="url(#bg)"/>
  <rect x="30" y="30" width="452" height="452" rx="110" fill="none" stroke="rgba(255,255,255,0.16)" stroke-width="8"/>

  <g transform="translate(256 256) scale(3.4)" fill="url(#glow)">
    <path d="M2 -34H24Q34 -34 34 -24V-2H12Q2 -2 2 -12Z"/>
    <path transform="rotate(90)" d="M2 -34H24Q34 -34 34 -24V-2H12Q2 -2 2 -12Z"/>
    <path transform="rotate(180)" d="M2 -34H24Q34 -34 34 -24V-2H12Q2 -2 2 -12Z"/>
    <path transform="rotate(270)" d="M2 -34H24Q34 -34 34 -24V-2H12Q2 -2 2 -12Z"/>
  </g>

  <circle cx="256" cy="256" r="30" fill="#fbc02d"/>
</svg>
