<svg xmlns="http://www.w3.org/2000/svg" viewBox="0 0 432 432" role="img" aria-label="ShetVaidya launcher foreground">
  <defs>
    <linearGradient id="glow" x1="0" y1="0" x2="1" y2="1">
      <stop offset="0%" stop-color="#55ffe6"/>
      <stop offset="100%" stop-color="#2fd8c3"/>
    </linearGradient>
  </defs>

  <g transform="translate(216 216) scale(3.2)" fill="url(#glow)">
    <path d="M2 -34H24Q34 -34 34 -24V-2H12Q2 -2 2 -12Z"/>
    <path transform="rotate(90)" d="M2 -34H24Q34 -34 34 -24V-2H12Q2 -2 2 -12Z"/>
    <path transform="rotate(180)" d="M2 -34H24Q34 -34 34 -24V-2H12Q2 -2 2 -12Z"/>
    <path transform="rotate(270)" d="M2 -34H24Q34 -34 34 -24V-2H12Q2 -2 2 -12Z"/>
  </g>

  <circle cx="216" cy="216" r="28" fill="#fbc02d"/>
</svg>
