<svg xmlns="http://www.w3.org/2000/svg" viewBox="0 0 432 432" role="img" aria-label="AgroGuard monochrome launcher foreground">
  <g transform="translate(216 216) scale(3.2)" fill="#000000">
    <path d="M2 -34H24Q34 -34 34 -24V-2H12Q2 -2 2 -12Z"/>
    <path transform="rotate(90)" d="M2 -34H24Q34 -34 34 -24V-2H12Q2 -2 2 -12Z"/>
    <path transform="rotate(180)" d="M2 -34H24Q34 -34 34 -24V-2H12Q2 -2 2 -12Z"/>
    <path transform="rotate(270)" d="M2 -34H24Q34 -34 34 -24V-2H12Q2 -2 2 -12Z"/>
  </g>

  <circle cx="216" cy="216" r="28" fill="#000000"/>
</svg>
